<svg width="212" height="46" viewBox="0 0 212 46" fill="none" xmlns="http://www.w3.org/2000/svg">
<path d="M22.9997 0C35.7026 0 45.9997 10.2971 45.9997 23V39.1C45.9997 40.93 45.2728 42.685 43.9788 43.979C42.6848 45.273 40.9297 46 39.0997 46H24.1497V35.9099C24.1497 33.6076 24.29 31.2225 25.4975 29.2629C26.362 27.8586 27.5185 26.6566 28.8884 25.7385C30.2583 24.8204 31.8096 24.2077 33.4371 23.9418L33.8776 23.8705C34.0592 23.8085 34.2168 23.6912 34.3284 23.5351C34.44 23.379 34.5 23.1919 34.5 23C34.5 22.8081 34.44 22.621 34.3284 22.4649C34.2168 22.3088 34.0592 22.1915 33.8776 22.1294L33.4371 22.0581C31.0591 21.6697 28.8632 20.5441 27.1594 18.8403C25.4556 17.1365 24.3301 14.9406 23.9416 12.5626L23.8703 12.1222C23.8082 11.9406 23.6909 11.7829 23.5348 11.6713C23.3787 11.5597 23.1916 11.4997 22.9997 11.4997C22.8078 11.4997 22.6208 11.5597 22.4647 11.6713C22.3086 11.7829 22.1913 11.9406 22.1292 12.1222L22.0579 12.5626C21.7922 14.1902 21.1795 15.7415 20.2614 17.1114C19.3433 18.4814 18.1412 19.6378 16.7368 20.5022C14.7772 21.7097 12.3921 21.85 10.0898 21.85H0.0273438C0.628794 9.68185 10.6832 0 22.9997 0Z" fill="#287094"/>
<path d="M0 24.15H10.0901C12.3924 24.15 14.7775 24.2903 16.7371 25.4978C18.2689 26.4417 19.5583 27.7311 20.5022 29.2629C21.7097 31.2225 21.85 33.6076 21.85 35.9099V46H6.9C5.07001 46 3.31496 45.273 2.02096 43.979C0.726962 42.685 0 40.93 0 39.1L0 24.15ZM46 2.3C46 2.91 45.7577 3.49501 45.3263 3.92635C44.895 4.35768 44.31 4.6 43.7 4.6C43.09 4.6 42.505 4.35768 42.0737 3.92635C41.6423 3.49501 41.4 2.91 41.4 2.3C41.4 1.69 41.6423 1.10499 42.0737 0.673654C42.505 0.242321 43.09 0 43.7 0C44.31 0 44.895 0.242321 45.3263 0.673654C45.7577 1.10499 46 1.69 46 2.3Z" fill="#287094"/>
<path d="M63.97 37V32.478H69.002C69.954 32.478 70.702 32.2173 71.246 31.696C71.8127 31.152 72.096 30.4493 72.096 29.588C72.096 29.0213 71.9713 28.5227 71.722 28.092C71.4727 27.6387 71.11 27.2987 70.634 27.072C70.1807 26.8227 69.6367 26.698 69.002 26.698H63.97V22.312H68.628C69.4213 22.312 70.0673 22.1193 70.566 21.734C71.0873 21.326 71.348 20.7027 71.348 19.864C71.348 19.0253 71.0873 18.4133 70.566 18.028C70.0673 17.62 69.4213 17.416 68.628 17.416H63.97V12.894H70.09C71.586 12.894 72.878 13.1773 73.966 13.744C75.0767 14.3107 75.9267 15.07 76.516 16.022C77.1053 16.974 77.4 18.0507 77.4 19.252C77.4 20.8613 76.8447 22.1987 75.734 23.264C74.646 24.3067 73.0593 24.9527 70.974 25.202V23.162C73.286 23.434 75.054 24.182 76.278 25.406C77.502 26.6073 78.114 28.126 78.114 29.962C78.114 31.322 77.774 32.5347 77.094 33.6C76.414 34.6427 75.4507 35.47 74.204 36.082C72.98 36.694 71.5293 37 69.852 37H63.97ZM59.142 37V12.894H65.126V37H59.142ZM89.0413 37.374C87.2506 37.374 85.6526 37 84.2473 36.252C82.8646 35.4813 81.7653 34.4387 80.9493 33.124C80.1333 31.7867 79.7253 30.2907 79.7253 28.636C79.7253 26.9813 80.1219 25.508 80.9153 24.216C81.7313 22.9013 82.8419 21.87 84.2473 21.122C85.6526 20.3513 87.2393 19.966 89.0073 19.966C90.7753 19.966 92.3506 20.3513 93.7333 21.122C95.1386 21.87 96.2493 22.9013 97.0653 24.216C97.8813 25.508 98.2893 26.9813 98.2893 28.636C98.2893 30.2907 97.8813 31.7867 97.0653 33.124C96.2719 34.4387 95.1726 35.4813 93.7673 36.252C92.3846 37 90.8093 37.374 89.0413 37.374ZM89.0073 32.104C89.6646 32.104 90.2313 31.968 90.7073 31.696C91.2059 31.4013 91.5913 30.9933 91.8633 30.472C92.1353 29.9507 92.2713 29.35 92.2713 28.67C92.2713 27.99 92.1239 27.4007 91.8293 26.902C91.5573 26.3807 91.1833 25.984 90.7073 25.712C90.2313 25.4173 89.6646 25.27 89.0073 25.27C88.3726 25.27 87.8059 25.4173 87.3073 25.712C86.8086 26.0067 86.4233 26.4147 86.1513 26.936C85.8793 27.4347 85.7433 28.024 85.7433 28.704C85.7433 29.3613 85.8793 29.9507 86.1513 30.472C86.4233 30.9933 86.8086 31.4013 87.3073 31.696C87.8059 31.968 88.3726 32.104 89.0073 32.104ZM108.83 37.374C107.04 37.374 105.442 37 104.036 36.252C102.654 35.4813 101.554 34.4387 100.738 33.124C99.9223 31.7867 99.5143 30.2907 99.5143 28.636C99.5143 26.9813 99.911 25.508 100.704 24.216C101.52 22.9013 102.631 21.87 104.036 21.122C105.442 20.3513 107.028 19.966 108.796 19.966C110.564 19.966 112.14 20.3513 113.522 21.122C114.928 21.87 116.038 22.9013 116.854 24.216C117.67 25.508 118.078 26.9813 118.078 28.636C118.078 30.2907 117.67 31.7867 116.854 33.124C116.061 34.4387 114.962 35.4813 113.556 36.252C112.174 37 110.598 37.374 108.83 37.374ZM108.796 32.104C109.454 32.104 110.02 31.968 110.496 31.696C110.995 31.4013 111.38 30.9933 111.652 30.472C111.924 29.9507 112.06 29.35 112.06 28.67C112.06 27.99 111.913 27.4007 111.618 26.902C111.346 26.3807 110.972 25.984 110.496 25.712C110.02 25.4173 109.454 25.27 108.796 25.27C108.162 25.27 107.595 25.4173 107.096 25.712C106.598 26.0067 106.212 26.4147 105.94 26.936C105.668 27.4347 105.532 28.024 105.532 28.704C105.532 29.3613 105.668 29.9507 105.94 30.472C106.212 30.9933 106.598 31.4013 107.096 31.696C107.595 31.968 108.162 32.104 108.796 32.104ZM131.101 37L125.865 28.296L131.067 20.374H137.561L131.101 29.316L131.271 27.14L137.901 37H131.101ZM120.425 37V12.214H126.341V37H120.425ZM140.298 37V13.098H144.922V37H140.298ZM143.698 37V32.92H156.924V37H143.698ZM143.698 26.766V22.822H155.734V26.766H143.698ZM143.698 17.178V13.098H156.754V17.178H143.698ZM166.944 37.34C165.448 37.34 164.099 36.966 162.898 36.218C161.696 35.47 160.756 34.45 160.076 33.158C159.396 31.866 159.056 30.4153 159.056 28.806C159.056 27.174 159.396 25.712 160.076 24.42C160.756 23.128 161.696 22.108 162.898 21.36C164.099 20.612 165.448 20.238 166.944 20.238C168.122 20.238 169.176 20.476 170.106 20.952C171.035 21.428 171.772 22.0967 172.316 22.958C172.882 23.7967 173.188 24.7487 173.234 25.814V31.73C173.188 32.818 172.882 33.7813 172.316 34.62C171.772 35.4587 171.035 36.1273 170.106 36.626C169.176 37.102 168.122 37.34 166.944 37.34ZM167.76 33.226C169.006 33.226 170.015 32.818 170.786 32.002C171.556 31.1633 171.942 30.0867 171.942 28.772C171.942 27.9107 171.76 27.1513 171.398 26.494C171.058 25.814 170.57 25.2927 169.936 24.93C169.324 24.5447 168.598 24.352 167.76 24.352C166.944 24.352 166.218 24.5447 165.584 24.93C164.972 25.2927 164.484 25.814 164.122 26.494C163.782 27.1513 163.612 27.9107 163.612 28.772C163.612 29.656 163.782 30.438 164.122 31.118C164.484 31.7753 164.972 32.2967 165.584 32.682C166.218 33.0447 166.944 33.226 167.76 33.226ZM171.704 37V32.58L172.418 28.568L171.704 24.624V20.578H176.124V37H171.704ZM185.708 37.374C184.778 37.374 183.86 37.2493 182.954 37C182.07 36.7507 181.254 36.4107 180.506 35.98C179.758 35.5267 179.112 34.9827 178.568 34.348L181.22 31.662C181.786 32.2967 182.444 32.7727 183.192 33.09C183.94 33.4073 184.767 33.566 185.674 33.566C186.399 33.566 186.943 33.464 187.306 33.26C187.691 33.056 187.884 32.75 187.884 32.342C187.884 31.8887 187.68 31.5373 187.272 31.288C186.886 31.0387 186.376 30.8347 185.742 30.676C185.107 30.4947 184.438 30.302 183.736 30.098C183.056 29.8713 182.398 29.588 181.764 29.248C181.129 28.8853 180.608 28.398 180.2 27.786C179.814 27.1513 179.622 26.3353 179.622 25.338C179.622 24.2953 179.871 23.3887 180.37 22.618C180.891 21.8473 181.628 21.2467 182.58 20.816C183.532 20.3853 184.654 20.17 185.946 20.17C187.306 20.17 188.53 20.408 189.618 20.884C190.728 21.36 191.646 22.074 192.372 23.026L189.686 25.712C189.187 25.1 188.62 24.658 187.986 24.386C187.374 24.114 186.705 23.978 185.98 23.978C185.322 23.978 184.812 24.08 184.45 24.284C184.11 24.488 183.94 24.7713 183.94 25.134C183.94 25.542 184.132 25.8593 184.518 26.086C184.926 26.3127 185.447 26.5167 186.082 26.698C186.716 26.8567 187.374 27.0493 188.054 27.276C188.756 27.48 189.414 27.7747 190.026 28.16C190.66 28.5453 191.17 29.0553 191.556 29.69C191.964 30.3247 192.168 31.1407 192.168 32.138C192.168 33.7473 191.59 35.028 190.434 35.98C189.278 36.9093 187.702 37.374 185.708 37.374ZM203.025 37.34C201.303 37.34 199.773 36.9773 198.435 36.252C197.098 35.504 196.033 34.484 195.239 33.192C194.469 31.9 194.083 30.4267 194.083 28.772C194.083 27.14 194.457 25.6893 195.205 24.42C195.976 23.128 197.019 22.108 198.333 21.36C199.648 20.5893 201.11 20.204 202.719 20.204C204.306 20.204 205.7 20.5667 206.901 21.292C208.125 21.9947 209.077 22.9693 209.757 24.216C210.46 25.44 210.811 26.834 210.811 28.398C210.811 28.6927 210.789 28.9987 210.743 29.316C210.721 29.6107 210.664 29.9507 210.573 30.336L196.769 30.37V27.038L208.499 27.004L206.697 28.398C206.652 27.4233 206.471 26.6073 206.153 25.95C205.859 25.2927 205.417 24.794 204.827 24.454C204.261 24.0913 203.558 23.91 202.719 23.91C201.835 23.91 201.065 24.114 200.407 24.522C199.75 24.9073 199.24 25.4627 198.877 26.188C198.537 26.8907 198.367 27.7293 198.367 28.704C198.367 29.7013 198.549 30.574 198.911 31.322C199.297 32.0473 199.841 32.614 200.543 33.022C201.246 33.4073 202.062 33.6 202.991 33.6C203.83 33.6 204.589 33.464 205.269 33.192C205.949 32.8973 206.539 32.4667 207.037 31.9L209.655 34.518C208.862 35.4473 207.887 36.15 206.731 36.626C205.598 37.102 204.363 37.34 203.025 37.34Z" fill="#000B6D"/>
</svg>
